<svg width="1118" height="954" viewBox="0 0 1118 954" fill="none" xmlns="http://www.w3.org/2000/svg">
<g clip-path="url(#clip0_817_2375)">
<path d="M70.8124 735.186L179.308 82.6443L513.717 138.245L622.721 156.369L746.028 176.871C754.686 175.607 765.343 170.45 790.004 174.551C809.535 176.582 829.328 187.004 834.316 191.55L1034.07 224.763L957.156 278.88L980.267 310.6L1037.38 268.902C1007.81 329.879 923.321 473.233 778.728 559.415C647.075 637.884 485.727 663.264 424.982 662.795L403.742 790.541L70.8124 735.186Z" fill="white" stroke="#FBDFB8"/>
<path d="M1032.14 225.823L917.927 304.477L923.884 268.648L859.765 257.987L869.606 198.799L1032.14 225.823Z" fill="#FFF4E2" stroke="#FBDFB8"/>
<path d="M403.329 789.983C322.959 726.452 339.892 597.597 441.836 558.382L403.329 789.983Z" fill="#FFF4E2" stroke="#FBDFB8"/>
<path d="M1032.14 225.823L917.676 304.65L915.426 273.712L915.362 272.839L914.643 273.336L896.305 286.023L869.906 198.849L1032.14 225.823Z" fill="#FFF4E2" stroke="#FBDFB8"/>
<path d="M429.234 125.074L412.832 223.719L320.105 208.302L336.507 109.656L429.234 125.074Z" fill="#FFF4E2" stroke="#FBDFB8"/>
<rect x="512.353" y="164.744" width="75" height="38" transform="rotate(9.44 512.353 164.744)" fill="#CCCBFF"/>
<rect x="87.8926" y="632.46" width="50" height="104" transform="rotate(9.44 87.8926 632.46)" fill="#CCCBFF"/>
<rect x="621.182" y="156.481" width="118" height="64" transform="rotate(9.44 621.182 156.481)" fill="#CCCBFF"/>
<path d="M454.463 294.063L426.322 322.991L425.85 323.477L426.454 323.785L648.354 437.216L648.394 437.237L648.437 437.25L685.595 448.497L686.14 448.661L689.741 427.007L704.453 432.783C687.114 525.089 594.609 591.514 495.048 574.961C469.256 570.672 446.316 561.119 426.688 547.753L467.927 513.507L468.367 513.142L467.947 512.755L416.965 465.757L416.686 465.5L416.364 465.699L374.449 491.511C331.253 417.839 339.875 314.113 423.626 252.084L454.463 294.063Z" fill="#FFF4E2" stroke="#FBDFB8"/>
<path d="M455.269 296.161L431.918 264.401C347.51 326.548 345.457 434.485 397.894 502.57L328.952 551.399L353.46 583.859L427.454 532.084C447.017 547.036 470.563 557.711 497.465 562.184C583.414 576.474 663.665 523.752 686.659 447.157L649.896 434.962L430.049 318.324L455.269 296.161Z" fill="#CCCBFF"/>
<path d="M442.015 305.615C368.627 370.271 387.115 501.973 505.919 526.589C585.923 536.299 646.361 481.564 653.647 415.311L442.015 305.615Z" fill="#999999"/>
</g>
<defs>
<clipPath id="clip0_817_2375">
<rect width="1000" height="800" fill="white" transform="translate(131.212) rotate(9.44)"/>
</clipPath>
</defs>
</svg>
