<svg width="4438" height="4315" viewBox="0 0 4438 4315" fill="none" xmlns="http://www.w3.org/2000/svg">
<g clip-path="url(#clip0_971_1877)">
<path d="M2826.71 309.478L2825.32 310.574L2824.29 312.014L2618.2 602.375L2617.08 603.938L2616.5 605.764L2504.28 954.198L2503.7 955.962L2503.67 957.818L2497.46 1333.47L2497.44 1334.29L2497.54 1335.1L2533.2 1644.99L2533.47 1647.38L2534.61 1649.48L2649.3 1862.15L2728 2037.57L2728.94 2039.66L2730.57 2041.27L2846.95 2157.32L2621.9 3421L2621.88 3421.11L2621.86 3421.22L2599.69 3560.07L63.128 3142.74L603.856 127.94L1822.97 314.801L1825.03 315.117L1827.08 314.736L3125 72.8999L2826.71 309.478Z" fill="#FFF4E2" stroke="#FCE0BB" stroke-width="20"/>
</g>
<rect x="4154.13" y="4281.64" width="657.776" height="189.421" transform="rotate(-83.3387 4154.13 4281.64)" fill="#FFF4E2" stroke="#FCE0BB" stroke-width="20"/>
<path d="M4415.24 3661.73L4394.62 3846.54L2606.84 3560.7L2637.7 3368.42L4415.24 3661.73Z" fill="#FFF4E2" stroke="#FCE0BB" stroke-width="20"/>
<rect x="4229.6" y="3715.01" width="169.781" height="148.069" transform="rotate(5.78609 4229.6 3715.01)" fill="#FFF4E2"/>
<rect x="2595.37" y="3373.66" width="179.361" height="171.452" transform="rotate(9.17192 2595.37 3373.66)" fill="#FFF4E2"/>
<defs>
<clipPath id="clip0_971_1877">
<rect width="3077" height="3536" fill="white" transform="translate(58.4961) rotate(0.947902)"/>
</clipPath>
</defs>
</svg>
